<svg width="108" height="116" viewBox="0 0 108 116" fill="none" xmlns="http://www.w3.org/2000/svg">
<path d="M6.04688 67.875C7.54688 71.3125 9.4375 74.0781 11.7188 76.1719C14 78.2656 16.1406 79.3125 18.1406 79.3125C19.2344 79.3125 20.1094 78.9375 20.7656 78.1875C21.4531 77.4375 21.7969 76.4688 21.7969 75.2812C21.7969 74.1562 21.5469 73.1875 21.0469 72.375C20.5469 71.5312 19.7812 70.7969 18.75 70.1719L13.5469 66.8906C9.76562 64.5781 7.01562 61.8906 5.29688 58.8281C3.60938 55.7656 2.76562 52 2.76562 47.5312C2.76562 31.3438 10.5469 23.25 26.1094 23.25C33.1094 23.25 39.6094 24.875 45.6094 28.125L40.2188 50.6719C38.5938 47.2656 36.7188 44.6406 34.5938 42.7969C32.4688 40.9531 30.3125 40.0312 28.125 40.0312C27 40.0312 26.0938 40.375 25.4062 41.0625C24.7188 41.7188 24.375 42.5938 24.375 43.6875C24.375 45.125 24.8125 46.2812 25.6875 47.1562C26.5938 48.0312 28.7188 49.4375 32.0625 51.375C35.5312 53.3125 38.2188 55.1562 40.125 56.9062C42.0312 58.6562 43.5469 60.8594 44.6719 63.5156C45.7969 66.1406 46.3594 69.2812 46.3594 72.9375C46.3594 89.0312 38.5469 97.0781 22.9219 97.0781C14.8906 97.0781 7.5 95.3125 0.75 91.7812L6.04688 67.875Z" fill="black"/>
<path d="M68.2969 69.4219V96H46.7812V24.4688H68.2969V50.6719H79.3594V24.4688H100.828V96H79.3594V69.4219H68.2969Z" fill="black"/>
<rect x="48.399" y="17" width="9.48525" height="91" transform="rotate(14.2494 48.399 17)" fill="white"/>
<rect x="38.439" y="65.0229" width="8.15397" height="31" transform="rotate(1.05287 38.439 65.0229)" fill="white"/>
</svg>
